<?xml version="1.0" encoding="UTF-8"?>
<!DOCTYPE svg PUBLIC "-//W3C//DTD SVG 1.1//EN" "http://www.w3.org/Graphics/SVG/1.1/DTD/svg11.dtd">
<svg xmlns="http://www.w3.org/2000/svg" version="1.1" width="780px" height="320px" style="shape-rendering:geometricPrecision; text-rendering:geometricPrecision; image-rendering:optimizeQuality; fill-rule:evenodd; clip-rule:evenodd" xmlns:xlink="http://www.w3.org/1999/xlink">
<g><path fill="#020202" fill-opacity="0.996" stroke="#020202" stroke-width="0.5" stroke-opacity="0.996" d="M 382.81,179 c 0.31,-1.46 -0.7,-6.26 0.76,-6.95 c 3.98,-0.14 7.96,-0.2 11.95,-0.18 c 0.88,-0.07 1.58,0.22 2.11,0.89 c -0.08,1.49 0.4,8.16 -0.4,8.98 c -3.1,0.71 -10.2,0.38 -13.67,0.23 c -0.73,-0.84 -0.98,-1.83 -0.75,-2.97 Z M 600.89,179 c 0.28,-1.43 -0.63,-6.22 0.7,-6.94 c 3.98,-0.15 7.96,-0.21 11.95,-0.2 c 0.63,-0.04 1.14,0.18 1.52,0.66 c 0.18,1.67 0.96,8.62 -0.61,9.45 c -4.29,0.22 -8.58,0.21 -12.86,-0.03 c -0.67,-0.85 -0.9,-1.83 -0.7,-2.94 Z M 104.2,246.95 c 2.67,-23.11 4.99,-46.25 6.99,-69.42 c -0.14,-1.87 0.68,-2.89 2.46,-3.08 c 7.45,-0.09 14.89,-0.02 22.32,0.22 c 0.57,0.47 0.87,1.09 0.89,1.84 c 2.05,19.99 3.7,40.04 6.05,59.99 c 0.26,3.88 0.47,7.75 0.63,11.61 c -0.61,0.45 -1.3,0.64 -2.08,0.55 c -3.56,0.02 -7.13,0.01 -10.7,-0.04 c -0.45,-0.23 -0.7,-0.61 -0.73,-1.13 c -0.48,-3.58 -0.92,-7.16 -1.32,-10.74 c -0.72,-1.11 -5.85,-0.3 -7.18,-0.54 c -1.94,-0.23 -1.95,2.03 -2.21,3.34 c -0.53,1.49 0.2,8.32 -1.25,8.9 c -4.15,0.23 -8.3,0.3 -12.46,0.2 c -1.04,-0.08 -1.51,-0.64 -1.41,-1.7 Z M 232.05,226 c 0.53,-10.65 -1.2,-21.6 1.3,-32.05 c 2.8,-8.76 13.41,-11.09 20.19,-5.5 c 1.07,-0.01 0.75,-0.96 0.92,-1.71 c -0.04,-3.54 -0.04,-7.08 -0.01,-10.63 c 0.36,-1.24 1.21,-1.78 2.54,-1.64 c 1.87,0.2 10.69,-0.56 11.68,0.36 c 0.32,0.85 0.45,1.74 0.39,2.66 c 0.03,23.33 0,46.67 -0.07,70 c -0.17,0.84 -0.68,1.23 -1.54,1.18 c -4.16,0.12 -8.31,0.03 -12.45,-0.26 c -0.3,-0.21 -0.46,-0.5 -0.48,-0.87 c 0.11,-1.48 0.13,-2.93 0.07,-4.35 c -0.47,0.08 -0.87,0.31 -1.18,0.67 c -3.22,8.6 -17.73,6.59 -20.04,-2.82 c -1.28,-4.93 -1.72,-9.95 -1.32,-15.04 Z M 464.57,247.09 c 2.28,-22.18 4.48,-44.37 6.58,-66.58 c 0.64,-2.11 -0.17,-6.33 3.11,-6.01 c 7.18,-0.12 14.35,-0.08 21.52,0.13 c 0.83,0.33 1.24,0.96 1.24,1.87 c 2.02,22.7 4.25,45.37 6.78,68.02 c -0.09,1.14 0.87,4.6 -1.34,4.16 c -2.17,-0.3 -10.85,0.53 -12.2,-0.45 c -0.65,-3.82 -1.14,-7.67 -1.45,-11.54 c -0.75,-1.09 -5.92,-0.25 -7.28,-0.5 c -1.47,0.13 -2.18,0.97 -2.13,2.5 c -0.19,2.92 -0.37,5.84 -0.54,8.75 c -0.05,0.5 -0.3,0.85 -0.73,1.08 c -4.17,0.19 -8.33,0.22 -12.5,0.09 c -0.77,-0.2 -1.13,-0.71 -1.06,-1.52 Z M 532.1,191 c -0.57,-4.39 1.95,-2.01 3.75,-3.65 c 0.11,-14.2 5.39,-13.41 17.42,-12.05 c 0.67,0.34 1.08,0.88 1.23,1.62 c 0.11,2.27 0.02,4.51 -0.27,6.74 c -1.09,0.62 -2.22,1.16 -3.41,1.62 c -0.77,0.81 -0.81,1.64 -0.12,2.49 c 1.17,0.59 3.24,-0.26 4.01,0.96 c 0.17,2.58 0.23,5.18 0.18,7.77 c 0.41,5.19 -3.68,1.8 -4.34,4.31 c -0.03,15.16 -0.03,30.32 0,45.49 c 0.1,1.09 -0.34,1.86 -1.3,2.33 c -3.9,0.04 -7.8,0.07 -11.7,0.08 c -0.89,0.05 -1.43,-0.34 -1.63,-1.2 c -0.12,-15.33 -0.14,-30.66 -0.04,-46 c 0.05,-0.56 -0.12,-1.04 -0.51,-1.45 c -1.03,-0.22 -2.02,-0.52 -2.97,-0.92 c -0.3,-2.7 -0.4,-5.41 -0.3,-8.14 Z M 506.89,196 c -0.08,-2.46 0.01,-4.91 0.25,-7.34 c 0.94,-0.46 1.92,-0.84 2.94,-1.14 c 0.33,-2.62 0.7,-5.25 1.1,-7.89 c 1.82,-6.49 11.22,-5.15 16.19,-4.32 c 0.47,0.06 0.85,0.26 1.16,0.6 c 0.3,1.88 0.93,6.47 -0.16,8.02 c -1.39,0.82 -3.53,0.45 -3.69,2.61 c -0.25,2.46 3.01,0.68 4.15,2.12 c 0.18,2.61 0.25,5.22 0.19,7.85 c 0.56,5.3 -4.37,1.39 -4.04,4.97 c 0.03,15.33 0.01,30.66 -0.08,45.99 c -0.04,0.5 -0.27,0.87 -0.71,1.1 c -3.89,0.11 -7.78,0.15 -11.67,0.14 c -0.75,0.06 -1.37,-0.18 -1.86,-0.73 c -0.29,-15.51 -0.38,-31.03 -0.27,-46.57 c 0.05,-2.07 -2.03,-1.33 -3.13,-2.18 c -0.33,-1.05 -0.46,-2.13 -0.37,-3.23 Z M 147.78,224 c 0.8,-11.1 -3.32,-29.78 8.52,-36.28 c 10.2,-4.65 25.39,-2.7 28.5,9.81 c 0.28,3.66 0.38,7.32 0.31,10.99 c 0.12,0.91 -0.13,1.68 -0.76,2.31 c -4.55,0.2 -9.1,0.18 -13.65,-0.05 c -2.08,-1.53 1.45,-10.6 -2.55,-13.35 c -4.43,-1.37 -5.4,2.59 -5.16,6.07 c 0.13,9.88 -0.31,21.16 0.22,30.86 c 0.77,4 6.59,3.74 6.8,-0.85 c 0.08,-3.34 0.09,-6.67 0.05,-10.01 c -0.21,-2.09 2.08,-1.79 3.44,-1.83 c 3.68,-0.11 7.35,-0.05 11,0.21 c 0.49,0.41 0.72,0.93 0.68,1.57 c 1.4,18.64 -3.47,27.36 -23.65,25.36 c -12.8,-2.55 -14.23,-13.75 -13.75,-24.81 Z M 226.33,197.97 c -1.87,-0.33 -2.33,-1.57 -2.32,1.51 c 0.2,3.85 -0.62,12.91 0.61,16.06 c -2.29,6.17 0.37,14.66 -0.64,21.02 c 0.26,2.38 -0.41,4.71 0.62,6.94 c -0.87,2.03 0.57,3.87 -2.27,3.97 c 1.17,0.28 2.38,0.44 3.62,0.46 c -2.8,1.55 -9.82,0.52 -13.18,0.68 c -1.73,-0.88 0,-4.27 -1.2,-5.54 c -0.74,0.95 -1.45,1.94 -2.12,2.97 c -2.1,2.45 -4.75,3.45 -7.95,3.03 c -10.04,0.21 -12.13,-10.58 -11.52,-18.57 c -0.3,-9.82 1.47,-14.66 10.6,-18.48 c 3.62,-1.32 7.22,-2.69 10.79,-4.1 c 0.38,-0.4 0.56,-0.88 0.55,-1.44 c 0,-3.53 0.86,-11 -5.05,-9.03 c -1.59,1.67 -2.25,3.68 -1.97,6.03 c -0.02,0.5 -0.25,0.87 -0.69,1.1 c -4.15,0.1 -8.3,0.11 -12.44,0.03 c -0.72,-0.49 -1.04,-1.19 -0.97,-2.08 c -2.39,-22.4 32.76,-22.45 35.53,-4.56 Z M 274.83,227 c 1.5,-10.69 -4.29,-31.7 6.51,-38.29 c 12.84,-7.57 30.01,-3.12 30.43,13.79 c 0.03,4.94 0.01,9.87 -0.05,14.8 c -0.53,0.73 -1.27,1.05 -2.19,0.97 c -6.26,-0.01 -12.52,0.03 -18.77,0.11 c -0.68,0.51 -0.98,1.21 -0.91,2.1 c 0.67,3.32 -1.84,15.92 2.63,16.69 c 2.33,0.42 3.77,-0.52 4.31,-2.81 c 0.08,-3.21 0.24,-6.41 0.48,-9.6 c 0.99,-1 11.81,-0.32 13.79,-0.21 c 1.65,0.89 0.14,10.04 -0.11,11.94 c -3.86,19.58 -39.45,18.17 -36.12,-9.49 Z M 317.15,245 c -0.06,-19.41 0.01,-38.82 0.21,-58.22 c 0.59,-0.54 1.3,-0.77 2.13,-0.68 c 3.95,-0.07 7.89,-0.03 11.83,0.12 c 0.16,0.15 0.32,0.31 0.48,0.46 c 0.03,1.68 0.25,3.32 0.66,4.91 c 3.43,-7.08 12.03,-7.97 17.94,-3.41 c 2.74,3.67 2.47,3.53 5.19,-0.02 c 9.26,-6.94 21.49,-0.73 21.19,11.34 c 0.08,15.97 0.07,31.94 -0.04,47.91 c -0.03,0.47 -0.25,0.83 -0.65,1.07 c -4.45,0.21 -8.9,0.27 -13.36,0.18 c -0.52,-0.2 -0.84,-0.58 -0.94,-1.14 c -0.87,-10.15 1.29,-42.05 -1.3,-49.58 c -3.42,-2.66 -6.32,1.2 -6.36,4.56 c -0.07,14.33 -0.09,28.67 -0.05,43.01 c -0.08,1.18 0.28,3.43 -1.63,3.16 c -3.32,0 -6.63,0.02 -9.95,0.05 c -1.07,0.13 -2.03,-0.11 -2.87,-0.72 c -0.28,-15.49 -0.4,-30.99 -0.38,-46.5 c 0.32,-6.91 -7.08,-4.91 -7.24,0.99 c 0.06,15.25 -0.05,30.5 -0.33,45.73 c -0.89,0.98 -11.84,0.37 -13.79,0.29 c -1.03,-0.56 -0.63,-2.53 -0.74,-3.51 Z M 402.97,218 c -0.02,-4.83 0.02,-9.67 0.12,-14.5 c 0.36,-16.9 15.79,-21.81 29.53,-15.61 c 8.44,4.56 7.9,12.23 7.76,20.64 c 0.1,0.98 -0.22,1.76 -0.98,2.34 c -4.55,0.21 -9.09,0.15 -13.62,-0.18 c -1.69,-1.89 2.21,-17.71 -6.34,-12.71 c -2.96,3.27 -0.87,28.77 -1.45,34.53 c 0.2,4.16 2.19,5.43 5.96,3.83 c 2.37,-2.27 0.9,-9.59 1.34,-12.79 c 0.04,-1.37 0.77,-1.99 2.18,-1.88 c 3.35,0 6.7,-0.02 10.05,-0.07 c 1.03,-0.14 1.9,0.15 2.61,0.86 c 1.02,11.64 1,23.31 -12.79,26.28 c -24.12,2.99 -25.18,-11.34 -24.37,-30.74 Z M 558.32,230 c -0.21,-16.05 7.93,-16.99 20.7,-21.61 c 1.92,-1.07 0.78,-6.95 0.81,-8.87 c -0.51,-2.69 -3.34,-3.1 -5.28,-1.53 c -0.77,1.76 -1.2,3.61 -1.3,5.54 c -0.15,0.54 -0.5,0.89 -1.03,1.04 c -3.56,0.06 -7.12,0.08 -10.68,0.07 c -1.96,-0.1 -2.69,-1.13 -2.2,-3.1 c 0.69,-15.42 10.55,-17.55 24.13,-15.39 c 6.45,1.7 10.3,5.82 11.54,12.34 c 0.1,16.34 0.09,32.67 -0.02,49 c -0.15,0.85 -0.67,1.26 -1.54,1.21 c -4.2,0.05 -8.39,-0.01 -12.58,-0.18 c -1.61,-0.75 0.09,-3.93 -1.47,-5.29 c -0.6,1.52 -1.52,2.82 -2.78,3.9 c -6.18,4.9 -15.89,1.07 -17.23,-6.83 c -0.75,-3.39 -1.1,-6.83 -1.07,-10.3 Z M 648.65,230 c 0.14,-1.24 -0.49,-3.37 0.82,-4.12 c 4.35,-0.25 8.7,-0.29 13.06,-0.11 c 3.29,0.61 -1.83,11.87 4.97,11.42 c 0.61,-0.04 1.18,-0.19 1.72,-0.47 c 9.16,-12.03 -19.37,-18.42 -20.19,-31.21 c -3.59,-27.37 36.9,-25.4 36.16,-5.01 c -0.04,1.38 0.68,4.64 -1.7,4.38 c -4.27,0.06 -8.52,0.02 -12.77,-0.14 c -0.16,-0.15 -0.31,-0.3 -0.47,-0.45 c -0.02,-1.9 -0.26,-3.77 -0.7,-5.6 c -3.84,-4.62 -8.52,1.61 -3.99,6.18 c 9.96,7.98 22.26,13.39 20.12,28.59 c -1.69,21.35 -37.27,23.21 -37.03,-3.46 Z M 382.78,246 c 0.02,-19.51 0.05,-39.02 0.08,-58.54 c 0.12,-0.95 0.67,-1.42 1.64,-1.41 c 3.96,-0.02 7.93,0.02 11.9,0.09 c 0.95,0.68 1.33,1.61 1.13,2.8 c 0.01,19.47 0.02,38.93 0.03,58.4 c -0.3,1.01 -1,1.46 -2.09,1.34 c -3.91,0.04 -7.82,0.02 -11.72,-0.04 c -0.81,-0.68 -1.13,-1.56 -0.97,-2.64 Z M 600.89,229 c -0.06,-14.12 0.02,-28.24 0.26,-42.34 c 0.34,-0.43 0.8,-0.62 1.35,-0.58 c 3.96,-0.06 7.92,-0.03 11.88,0.07 c 0.71,0.6 1,1.37 0.88,2.33 c 0.04,19.68 0,39.35 -0.15,59.02 c -0.24,0.83 -0.8,1.22 -1.67,1.16 c -3.63,0.02 -7.26,0.03 -10.89,0.02 c -1.27,-0.11 -1.82,-0.83 -1.64,-2.16 c -0.01,-5.84 -0.02,-11.68 -0.02,-17.52 Z M 620.92,245 c -0.08,-19.45 0,-38.89 0.26,-58.32 c 0.34,-0.42 0.78,-0.61 1.33,-0.56 c 4.27,-0.07 8.54,-0.04 12.81,0.1 c 0.16,0.16 0.32,0.31 0.49,0.46 c 0.06,1.71 0.32,3.38 0.76,5 c 1.6,-3.4 4.25,-5.39 7.94,-5.96 c 1.49,-0.27 2.28,0.33 2.37,1.8 c 0.01,2.66 0.02,5.33 0.03,7.99 c 0.13,0.86 -0.08,1.61 -0.62,2.24 c -2.63,0.2 -5.22,0.68 -7.74,1.45 c -1.03,0.1 -1.82,0.56 -2.37,1.38 c -0.12,15.63 -0.2,31.26 -0.25,46.9 c -0.14,0.83 -0.63,1.23 -1.48,1.19 c -4.24,0.03 -8.47,0.02 -12.71,-0.02 c -1.2,-0.51 -0.7,-2.62 -0.82,-3.65 Z M 120.82,222.01 c -0.24,1.32 0.29,2.1 1.59,2.35 c 1.26,-0.19 4.9,0.64 5.35,-1.02 c -0.8,-10.92 -2.72,-24.18 -2.71,-34.87 c -0.2,-1.3 -0.77,-1.54 -1.73,-0.71 c -0.7,11.42 -1.54,22.84 -2.5,34.25 Z M 480.84,223.06 c -0.06,2.04 6.38,1.71 6.78,0.24 c -1.19,-11.57 -2.11,-23.16 -2.77,-34.77 c -0.15,-1.72 -1.75,-1.86 -1.86,-0.06 c 0.38,11.03 -2.07,23.36 -2.15,34.59 Z M 247.18,205 c 0.65,6.46 -1.31,26.27 1.33,31.02 c 3.96,2.9 5.96,-1.05 6.06,-4.57 c -0.58,-6.88 1.53,-28.24 -1.37,-33.3 c -4.94,-3.83 -6.46,3.3 -6.02,6.85 Z M 289.85,208 c -0.8,4.24 3.03,2.78 5.67,3 c 0.56,0.02 0.99,-0.19 1.3,-0.65 c 0.21,-3.28 0.98,-10.68 -1.66,-12.94 c -6.98,-1.88 -4.96,6.45 -5.31,10.59 Z M 204.87,228 c 0.29,3.22 -1.18,9.05 3.63,9.16 c 5.88,-0.12 2.51,-15.84 3.43,-19.67 c 0.04,-0.54 -0.16,-0.95 -0.59,-1.25 c -6.53,1.26 -6.57,6.22 -6.47,11.76 Z M 573.32,226 c 0.23,2.28 -0.78,10.15 2.22,10.98 c 7.05,1.53 4.47,-15.88 4.32,-20.35 c -0.58,-0.44 -1.18,-0.45 -1.81,-0.02 c -4,1.6 -4.82,5.49 -4.73,9.39 Z"/></g>
<g><path fill="#d71c21" fill-opacity="0.996" stroke="#d71c21" stroke-width="0.5" stroke-opacity="0.996" d="M 202.06,75.3 c 0.77,-0.35 1.58,-0.52 2.43,-0.5 c 3.98,-0.09 7.96,-0.01 11.92,0.23 c 1.36,1.14 0.46,8.09 0.21,9.87 c -4.83,0.14 -9.66,0.15 -14.49,0.03 c -0.09,-3.21 -0.11,-6.42 -0.07,-9.63 Z M 142.73,92.09 c 0.3,14.25 0.31,28.5 0.03,42.75 c -2.87,23.95 -34.14,23.65 -37.11,0.33 c 0.27,-1.21 0.4,-2.44 0.39,-3.68 c -0.05,-12.33 -0.05,-24.66 -0.01,-36.99 c 0,-0.96 -0.12,-1.92 -0.35,-2.86 c 3,-21.46 34.69,-21.3 37.05,0.45 Z M 167.08,102.86 c -0.91,0.63 -1.27,1.5 -1.11,2.62 c 0.1,15.47 0.04,30.93 -0.19,46.39 c -4.1,-0.04 -8.19,0.02 -12.29,0.18 c -0.86,0.08 -1.57,-0.2 -2.1,-0.86 c -0.13,-15.58 -0.19,-31.16 -0.17,-46.75 c 0.19,-2.2 -1.72,-1.64 -3.03,-2.2 c -0.92,-2.27 -0.23,-7.15 -0.49,-9.75 c 0.02,-0.63 0.31,-1.08 0.87,-1.34 c 0.91,-0.01 1.74,-0.25 2.5,-0.71 c 0.12,-2.67 0.46,-5.33 1.01,-7.96 c 2.89,-7.2 11.21,-5.37 17.26,-4.3 c 1.32,0.74 0.62,6.76 0.61,8.24 c -1.09,0.63 -2.26,1.13 -3.49,1.52 c -0.75,1.05 -0.7,2.03 0.15,2.94 c 0.99,0.47 3.53,-0.31 4,0.87 c 0.01,3.17 0.01,6.33 0.01,9.5 c -0.19,0.53 -0.55,0.86 -1.1,1.01 c -0.88,0.04 -1.69,0.25 -2.44,0.6 Z M 177.89,152.06 c 0.13,-15.85 0.16,-31.72 0.11,-47.58 c 0.21,-2.68 -1.88,-2.46 -3.87,-2.48 c -0.11,-3.18 -0.14,-6.36 -0.11,-9.53 c 0.01,-0.73 0.35,-1.2 1.01,-1.41 c 1.07,0.17 2.01,-0.06 2.83,-0.7 c 0.2,-1.78 0.26,-3.57 0.19,-5.36 c 0.67,-9.58 11.39,-8.52 18.16,-6.67 c 0.87,0.71 0.48,6.63 0.51,7.97 c -1.42,1.89 -4.74,0.17 -4.36,3.93 c 1.12,1.69 3.14,-0.07 4.42,1.46 c 0.18,2.6 0.24,5.21 0.18,7.82 c 0.73,5.15 -4.09,0.63 -4.11,4.97 c 0.01,15.58 -0.06,31.16 -0.22,46.74 c -0.27,0.41 -0.66,0.62 -1.16,0.61 c -4.53,0 -9.06,0.07 -13.58,0.23 Z M 373.22,151.86 c -0.21,-15.79 -0.29,-31.58 -0.22,-47.38 c 0.21,-2.52 -1.29,-2.31 -3.23,-2.58 c 0.06,-3.43 0.17,-6.86 0.33,-10.27 c 0.87,-0.47 1.74,-0.92 2.62,-1.37 c 0.41,-12.73 5.24,-15.26 17.67,-12.16 c 1.63,0.84 0.86,6.74 0.69,8.38 c -0.9,0.61 -1.9,1.03 -2.98,1.27 c -0.56,0.45 -0.88,1.04 -0.97,1.76 c -0.51,3 4.68,-0.42 4.19,3.96 c 0.09,2.7 0.02,5.38 -0.2,8.06 c -1.48,1.87 -3.31,-0.35 -3.22,2.95 c 0.06,15.6 0.01,31.2 -0.16,46.79 c -0.31,0.42 -0.73,0.62 -1.26,0.59 c -4.42,0.08 -8.84,0.08 -13.26,0 Z M 238.01,103.89 c -0.81,0.66 -1.15,1.53 -1.03,2.59 c 0,9.35 0.01,18.69 0.01,28.04 c -0.19,1.19 0.25,1.99 1.33,2.41 c -1.33,4.5 6.42,5.39 6.68,-0.42 c 0.04,-3.34 0.05,-6.68 0.04,-10.02 c -0.04,-0.57 0.15,-1.04 0.59,-1.41 c 4.29,-0.22 8.6,-0.31 12.92,-0.25 c 0.6,0 1.04,0.25 1.34,0.77 c 1.4,14.41 -0.58,27.14 -18.39,26.7 c -10.55,0.35 -16.84,-4.66 -18.87,-15.02 c 0.11,-1.6 0.23,-3.19 0.36,-4.78 c 0.08,-9.22 -0.02,-18.44 -0.29,-27.64 c 1.65,-16.79 18.25,-20.24 31.2,-13.06 c 7.24,5.29 6.53,13.43 5.83,21.45 c -0.34,0.37 -0.76,0.53 -1.27,0.48 c -4.23,0.07 -8.46,0.03 -12.68,-0.11 c -0.44,-0.25 -0.67,-0.63 -0.68,-1.14 c -0.02,-2.99 -0.09,-5.98 -0.21,-8.97 c -1,-5.33 -7.75,-4.02 -6.88,0.38 Z M 301.97,103.01 c -0.02,6.05 0,12.09 0.08,18.14 c -6.52,-0.15 -13.04,-0.2 -19.57,-0.16 c -0.54,0.04 -2.42,-0.1 -2.12,0.98 c -0.26,0.82 -0.39,1.66 -0.4,2.52 c -0.09,4.2 -0.02,8.4 0.22,12.59 c 0.31,1.28 0.93,2.36 1.86,3.23 c 2.85,1.16 4.51,0.23 4.97,-2.79 c 0.15,-3.13 0.38,-6.23 0.68,-9.32 c 4.56,-0.24 9.12,-0.27 13.68,-0.08 c 1.15,0.73 0.27,5.47 0.56,6.85 c -0.31,15.63 -11.59,19.24 -25.23,16.63 c -17.12,-3.99 -10.25,-31.53 -11.69,-44.1 c -2.28,-23.57 33.91,-26.79 36.96,-4.49 Z M 365.37,103.83 c -0.3,0.86 -0.44,1.75 -0.41,2.67 c -0.01,10.2 0.06,20.4 0.21,30.61 c -1.46,21.15 -36.48,20.6 -37.18,-1.1 c 0.01,-10.34 0.02,-20.68 0.03,-31.01 c 2.42,-22.63 33.93,-21.88 37.35,-1.17 Z M 202.14,89.54 c 2.99,-0.86 9.9,-0.2 13.35,-0.44 c 0.54,-0.03 0.98,0.17 1.3,0.59 c 0.17,19.6 0.24,39.2 0.21,58.81 c -0.18,1.14 0.43,2.51 -0.68,3.28 c -3.75,0.12 -10.8,0.46 -14.2,-0.25 c -0.12,-20.66 -0.11,-41.33 0.02,-61.99 Z M 120.56,130 c -0.51,3.83 0.89,12.02 6.46,7.45 c 2.22,-2.82 0.57,-36.91 1.05,-42.96 c -0.18,-6.36 -7.54,-5.77 -7.4,-0.01 c -0.09,11.84 -0.12,23.68 -0.11,35.52 Z M 280.71,101.9 c -1.34,2.5 -0.79,8.57 -0.56,11.45 c 0.63,1.09 6.62,1.17 7.01,-0.19 c -0.01,-2.89 -0.04,-5.78 -0.09,-8.67 c 0.47,-4.31 -4.13,-6.42 -6.36,-2.59 Z M 343.8,101.79 c -0.77,1.82 -1.05,3.73 -0.85,5.71 c -0.01,9.33 0.01,18.67 0.06,28 c -0.03,1.3 0.24,2.53 0.79,3.69 c 0.31,0.47 0.72,0.83 1.22,1.08 c 2.33,1.05 3.98,0.43 4.94,-1.86 c 0.25,-7.06 1.86,-31.21 -0.32,-36.59 c -1.94,-2.4 -3.88,-2.4 -5.84,-0.03 Z"/></g>
<g><path fill="#060606" fill-opacity="0.949" d="M 226.33,197.97 c 0.89,5.2 1.19,47.22 -0.38,49.96 c -1.24,-0.02 -2.45,-0.18 -3.62,-0.46 c 2.84,-0.1 1.4,-1.94 2.27,-3.97 c -1.03,-2.23 -0.36,-4.56 -0.62,-6.94 c 1.01,-6.36 -1.65,-14.85 0.64,-21.02 c -1.23,-3.15 -0.41,-12.21 -0.61,-16.06 c -0.01,-3.08 0.45,-1.84 2.32,-1.51 Z"/></g>
<g><path fill="#9b292c" fill-opacity="0.094" stroke="#9b292c" stroke-width="0.5" stroke-opacity="0.094" d="M 202.14,89.54 c -0.13,20.66 -0.14,41.33 -0.02,61.99 c -1.16,0.47 -1.11,-1.4 -1.1,-1.99 c -0.09,-19.69 -0.06,-39.37 0.08,-59.05 c -0.04,-0.8 0.31,-1.11 1.04,-0.95 Z"/></g>
<g><path fill="#cd171d" fill-opacity="0.451" d="M 174.13,102 c 1.99,0.02 4.08,-0.2 3.87,2.48 c 0.05,15.86 0.02,31.73 -0.11,47.58 c -0.73,-0.67 -1.03,-1.52 -0.89,-2.55 c 0,-15.01 0.01,-30.03 0.02,-45.04 c 0.3,-2.45 -2.83,-0.73 -2.89,-2.47 Z"/></g>
<g><path fill="#b32328" fill-opacity="0.38" d="M 369.77,101.9 c 1.94,0.27 3.44,0.06 3.23,2.58 c -0.07,15.8 0.01,31.59 0.22,47.38 c -1.01,-0.41 -1.42,-1.19 -1.21,-2.34 c 0.03,-15.31 0,-30.61 -0.1,-45.91 c -0.83,-0.44 -1.54,-1.01 -2.14,-1.71 Z"/></g>
<g><path fill="#a22f34" fill-opacity="0.369" d="M 105.68,91.64 c 0.23,0.94 0.35,1.9 0.35,2.86 c -0.04,12.33 -0.04,24.66 0.01,36.99 c 0.01,1.24 -0.12,2.47 -0.39,3.68 c -0.26,-0.1 -0.41,-0.3 -0.45,-0.6 c -0.24,-13.7 -0.29,-27.41 -0.13,-41.11 c 0,-0.68 0.21,-1.29 0.61,-1.82 Z"/></g>
<g><path fill="#a8151d" fill-opacity="0.047" stroke="#a8151d" stroke-width="0.5" stroke-opacity="0.047" d="M 142.73,92.09 c 1.91,-0.76 1,4.53 1.28,5.41 c -0.03,11.67 -0.03,23.34 0,35.01 c -0.03,0.72 0.04,2.68 -1.25,2.33 c 0.28,-14.25 0.27,-28.5 -0.03,-42.75 Z"/></g>
<g><path fill="#be1e24" fill-opacity="0.482" d="M 238.01,103.89 c -0.15,11.02 -0.05,22.03 0.31,33.04 c -1.08,-0.42 -1.52,-1.22 -1.33,-2.41 c 0,-9.35 -0.01,-18.69 -0.01,-28.04 c -0.12,-1.06 0.22,-1.93 1.03,-2.59 Z"/></g>
<g><path fill="#be1c1f" fill-opacity="0.478" d="M 365.37,103.83 c 0.23,0.2 0.37,0.46 0.44,0.77 c 0.27,10.63 0.27,21.25 -0.01,31.87 c -0.08,0.35 -0.29,0.56 -0.63,0.64 c -0.15,-10.21 -0.22,-20.41 -0.21,-30.61 c -0.03,-0.92 0.11,-1.81 0.41,-2.67 Z"/></g>
<g><path fill="#b22528" fill-opacity="0.439" d="M 222.7,104.86 c 0.27,9.2 0.37,18.42 0.29,27.64 c -0.13,1.59 -0.25,3.18 -0.36,4.78 c -0.22,-0.2 -0.36,-0.46 -0.41,-0.76 c -0.28,-10.04 -0.33,-20.08 -0.16,-30.12 c -0.03,-0.65 0.18,-1.16 0.64,-1.54 Z"/></g>
<g><path fill="#9f252b" fill-opacity="0.235" stroke="#9f252b" stroke-width="0.5" stroke-opacity="0.235" d="M 328.02,105 c -0.01,10.33 -0.02,20.67 -0.03,31.01 c -0.67,-0.21 -0.98,-0.7 -0.95,-1.45 c -0.09,-9.35 -0.07,-18.7 0.03,-28.05 c -0.04,-0.77 0.27,-1.27 0.95,-1.51 Z"/></g>
<g><path fill="#a5282e" fill-opacity="0.247" d="M 301.93,134.97 c -0.29,-1.38 0.59,-6.12 -0.56,-6.85 c -4.56,-0.19 -9.12,-0.16 -13.68,0.08 c -0.37,-0.78 -0.12,-1.2 0.76,-1.28 c 4.65,-0.04 9.31,0.01 13.96,0.14 c 0.44,0.37 0.62,0.84 0.52,1.41 c -0.08,2.01 -0.15,4.01 -0.21,6.01 c -0.13,0.41 -0.39,0.57 -0.79,0.49 Z"/></g>
<g><path fill="#b82329" fill-opacity="0.439" d="M 302.05,121.15 c 0.01,0.37 -0.17,0.61 -0.56,0.7 c -6.86,0.15 -13.73,0.2 -20.61,0.16 c -0.17,-0.01 -0.35,-0.03 -0.52,-0.04 c -0.3,-1.08 1.58,-0.94 2.12,-0.98 c 6.53,-0.04 13.05,0.01 19.57,0.16 Z"/></g>
<g><path fill="#a72526" fill-opacity="0.18" stroke="#a72526" stroke-width="0.5" stroke-opacity="0.18" d="M 280.71,101.9 c 0.09,3.52 0.16,7.05 0.21,10.58 c 0.71,1.34 4.83,0.23 6.24,0.68 c -0.39,1.36 -6.38,1.28 -7.01,0.19 c -0.23,-2.88 -0.78,-8.95 0.56,-11.45 Z"/></g>
<g><path fill="#a12c2d" fill-opacity="0.145" stroke="#a12c2d" stroke-width="0.5" stroke-opacity="0.145" d="M 301.97,103.01 c 1.2,-0.31 0.84,1.88 0.99,2.49 c 0.1,4.99 0.06,9.97 -0.12,14.94 c -0.14,0.39 -0.4,0.62 -0.79,0.71 c -0.08,-6.05 -0.1,-12.09 -0.08,-18.14 Z"/></g>
<g><path fill="#aa2327" fill-opacity="0.106" stroke="#aa2327" stroke-width="0.5" stroke-opacity="0.106" d="M 178.05,85 c 0.07,1.79 0.01,3.58 -0.19,5.36 c -0.82,0.64 -1.76,0.87 -2.83,0.7 c -0.26,-1.13 1.48,-0.59 1.94,-1.59 c 0.33,-0.77 -0.33,-4.71 1.08,-4.47 Z"/></g>
<g><path fill="#000000" fill-opacity="0.035" stroke="#000000" stroke-width="0.5" stroke-opacity="0.035" d="M 120.82,222.01 c 0.96,-11.41 1.8,-22.83 2.5,-34.25 c 0.96,-0.83 1.53,-0.59 1.73,0.71 c -0.01,10.69 1.91,23.95 2.71,34.87 c -0.45,1.66 -4.09,0.83 -5.35,1.02 c -1.3,-0.25 -1.83,-1.03 -1.59,-2.35 Z M 480.84,223.06 c 0.08,-11.23 2.53,-23.56 2.15,-34.59 c 0.11,-1.8 1.71,-1.66 1.86,0.06 c 0.66,11.61 1.58,23.2 2.77,34.77 c -0.4,1.47 -6.84,1.8 -6.78,-0.24 Z"/></g>
<g><path fill="#af1c22" fill-opacity="0.18" stroke="#af1c22" stroke-width="0.5" stroke-opacity="0.18" d="M 343.8,101.79 c 0.05,12.47 0.05,24.93 0,37.4 c -0.55,-1.16 -0.82,-2.39 -0.79,-3.69 c -0.05,-9.33 -0.07,-18.67 -0.06,-28 c -0.2,-1.98 0.08,-3.89 0.85,-5.71 Z"/></g>
<g><path fill="#a0211d" fill-opacity="0.145" stroke="#a0211d" stroke-width="0.5" stroke-opacity="0.145" d="M 280.36,121.97 c 0.17,0.01 0.35,0.03 0.52,0.04 c -0.05,4.17 0,8.34 0.15,12.51 c -0.06,0.93 -0.34,1.78 -0.85,2.56 c -0.24,-4.19 -0.31,-8.39 -0.22,-12.59 c 0.01,-0.86 0.14,-1.7 0.4,-2.52 Z"/></g>
<g><path fill="#cf151a" fill-opacity="0.467" d="M 167.08,102.86 c -0.07,15.55 -0.08,31.1 -0.06,46.66 c 0.19,1.15 -0.23,1.93 -1.24,2.35 c 0.23,-15.46 0.29,-30.92 0.19,-46.39 c -0.16,-1.12 0.2,-1.99 1.11,-2.62 Z"/></g>
<g><path fill="#b0232f" fill-opacity="0.071" stroke="#b0232f" stroke-width="0.5" stroke-opacity="0.071" d="M 202.13,84.93 c 4.83,0.12 9.66,0.11 14.49,-0.03 c 0.05,0.34 -0.07,0.59 -0.38,0.75 c -4.55,0.51 -9.1,0.58 -13.67,0.23 c -0.44,-0.18 -0.59,-0.49 -0.44,-0.95 Z"/></g>
<g><path fill="#99272c" fill-opacity="0.098" stroke="#99272c" stroke-width="0.5" stroke-opacity="0.098" d="M 202.06,75.3 c -0.04,3.21 -0.02,6.42 0.07,9.63 c -1.32,0.22 -1.23,-1.63 -1.22,-2.42 c 0.29,-2.01 0.32,-4.02 0.12,-6.04 c -0.05,-0.77 0.29,-1.16 1.03,-1.17 Z"/></g>
</svg>
